<?xml version="1.0" standalone="no"?>
<!DOCTYPE svg PUBLIC "-//W3C//DTD SVG 1.1//EN" "http://www.w3.org/Graphics/SVG/1.1/DTD/svg11.dtd">
<svg width="25px" height="25px" version="1.1" xmlns="http://www.w3.org/2000/svg" xmlns:xlink="http://www.w3.org/1999/xlink" xml:space="preserve" style="fill-rule:evenodd;clip-rule:evenodd;stroke-linejoin:round;stroke-miterlimit:1.41421;">
    <g>
        <g id="Capa_1">
            <path d="M16.7831,24.4417C16.6614,24.486 16.5389,24.5395 16.4136,24.5616C15.9337,24.648 15.6265,24.3982 15.6237,23.9037C15.6174,22.9853 15.6174,22.0683 15.6322,21.1499C15.6478,20.0939 15.6237,19.0512 14.8259,18.1799C15.3002,18.0943 15.7221,18.0344 16.1348,17.9387C18.8684,17.3058 20.2884,15.5674 20.4696,12.6824C20.5624,11.2138 20.3026,9.8665 19.3342,8.70979C19.2641,8.62843 19.2606,8.44357 19.2939,8.32514C19.5515,7.36893 19.4765,6.43481 19.1764,5.5C19.102,5.26666 18.9789,5.19459 18.7502,5.20956C17.9475,5.25452 17.2121,5.53854 16.5636,5.97526C15.9387,6.39843 15.3569,6.49048 14.6143,6.31921C12.9791,5.94743 11.3334,6.05589 9.70186,6.43696C9.51707,6.4812 9.26864,6.42197 9.0995,6.32207C8.33357,5.86964 7.56764,5.43007 6.68428,5.25452C6.00121,5.12037 5.94174,5.15462 5.76054,5.82041C5.53261,6.6596 5.50996,7.4995 5.74284,8.34371C5.77611,8.46643 5.74142,8.66336 5.66003,8.754C3.85006,10.7899 4.50552,14.6369 5.72514,16.1105C6.67366,17.2551 7.93364,17.7703 9.33236,18.0379C9.57657,18.0836 9.81936,18.1185 10.0636,18.1614C9.85407,18.7109 9.66579,19.2296 9.45271,19.7399C9.41093,19.8384 9.27857,19.9211 9.17029,19.9625C7.79843,20.4991 6.61916,20.1045 5.83415,18.8493C5.4144,18.1799 4.87573,17.6797 4.07303,17.5349C4.04755,17.5299 4.02136,17.5163 3.998,17.5199C3.78211,17.577 3.56834,17.6369 3.35315,17.6954C3.47419,17.8652 3.55984,18.0936 3.72194,18.1956C4.40219,18.6295 4.84459,19.2482 5.13692,19.9781C5.59632,21.1228 6.4882,21.6331 7.64693,21.7329C8.2125,21.7794 8.78379,21.7401 9.40314,21.7401C9.40314,22.4509 9.42864,23.2621 9.3925,24.0699C9.37414,24.5053 8.94021,24.6794 8.42064,24.5009C7.04244,24.0257 5.76478,23.3443 4.66125,22.3866C0.676784,18.9264 -0.859243,14.552 0.465139,9.43193C1.78527,4.32828 5.22611,1.19772 10.3707,0.215096C17.4895,-1.14217 24.2332,4.08422 24.9396,11.3694C25.4974,17.1124 22.1444,22.4865 16.7831,24.4417ZM10.0721,18.1343C10.0678,18.1443 10.065,18.1514 10.0607,18.1614C10.0735,18.1635 10.0862,18.1656 10.0996,18.1678C10.1096,18.1685 10.1181,18.1864 10.0721,18.1343ZM6.85133,20.4042C6.96246,20.4734 7.06864,20.5612 7.189,20.599C7.23286,20.6133 7.31429,20.5127 7.45793,20.4056C7.25836,20.3293 7.14084,20.2622 7.01696,20.2451C6.96883,20.2394 6.90654,20.3485 6.85133,20.4042ZM7.86571,20.5798C7.88193,20.6546 8.02993,20.7482 8.117,20.7467C8.20121,20.7453 8.28329,20.6326 8.36757,20.5683C8.29107,20.4976 8.21464,20.4292 7.97964,20.2159C7.92864,20.3643 7.84443,20.4841 7.86571,20.5798ZM9.11007,20.2779C9.00536,20.3029 8.91686,20.4006 8.82129,20.4677C8.87721,20.5391 8.93314,20.6055 9.023,20.7175C9.14693,20.6033 9.23114,20.5241 9.31607,20.447C9.24529,20.3849 9.1625,20.2651 9.11007,20.2779ZM6.02527,19.8547C6.08331,19.9654 6.17321,20.061 6.29496,20.2173C6.37636,20.0831 6.46484,19.9804 6.44927,19.9596C6.37211,19.8576 6.26736,19.7741 6.16401,19.6978C6.15694,19.6921 6.01324,19.8305 6.02527,19.8547Z" style="fill:rgb(238,238,238);fill-rule:nonzero;"/>
        </g>
    </g>
</svg>
