<?xml version="1.0" standalone="no"?>
<!DOCTYPE svg PUBLIC "-//W3C//DTD SVG 1.1//EN" "http://www.w3.org/Graphics/SVG/1.1/DTD/svg11.dtd">
<svg width="25px" height="25px" version="1.1" xmlns="http://www.w3.org/2000/svg" xmlns:xlink="http://www.w3.org/1999/xlink" xml:space="preserve" style="fill-rule:evenodd;clip-rule:evenodd;stroke-linejoin:round;stroke-miterlimit:1.41421;">
    <g>
        <path d="M12.5,0C19.4036,0 25,5.59644 25,12.5C25,19.4036 19.4036,25 12.5,25C5.59644,25 0,19.4036 0,12.5C0,5.59644 5.59644,0 12.5,0Z" style="fill:rgb(235,235,235);"/>
        <g>
            <path d="M19.2781,18.9836C19.6491,18.9836 19.9706,18.8611 20.2438,18.6192L15.5681,13.9433C15.4559,14.0236 15.3472,14.1018 15.2445,14.176C14.8946,14.4338 14.6106,14.635 14.3925,14.7792C14.1744,14.9236 13.8843,15.0709 13.5222,15.2213C13.1598,15.3718 12.8222,15.4468 12.5091,15.4468L12.4907,15.4468C12.1775,15.4468 11.8399,15.3718 11.4776,15.2213C11.1152,15.0709 10.8251,14.9236 10.6073,14.7792C10.3893,14.635 10.1054,14.4339 9.75533,14.176C9.65777,14.1045 9.54957,14.026 9.4326,13.9421L4.75597,18.6192C5.02921,18.8611 5.35086,18.9836 5.72181,18.9836Z" style="fill:rgb(64,67,79);fill-rule:nonzero;"/>
            <path d="M5.17848,10.9989C4.8286,10.7656 4.51834,10.4985 4.24822,10.1976L4.24822,17.3116L8.36938,13.1904C7.54492,12.6148 6.48263,11.8851 5.17848,10.9989Z" style="fill:rgb(64,67,79);fill-rule:nonzero;"/>
            <path d="M19.8308,10.9989C18.5764,11.8479 17.5103,12.5788 16.6323,13.192L20.7518,17.3117L20.7518,10.1976C20.4877,10.4924 20.1807,10.7594 19.8308,10.9989Z" style="fill:rgb(64,67,79);fill-rule:nonzero;"/>
            <path d="M19.2781,6.01643L5.72184,6.01643C5.2489,6.01643 4.8853,6.17614 4.63058,6.49522C4.37565,6.81444 4.2484,7.21367 4.2484,7.69245C4.2484,8.07919 4.41727,8.49822 4.75487,8.94968C5.09246,9.40095 5.45169,9.75542 5.83237,10.0133C6.04106,10.1607 6.67041,10.5982 7.72041,11.3257C8.28722,11.7185 8.78015,12.0608 9.20374,12.3563C9.56479,12.6078 9.87617,12.8257 10.1333,13.0065C10.1628,13.0272 10.2092,13.0604 10.2708,13.1044C10.3372,13.1521 10.4211,13.2126 10.5248,13.2874C10.7243,13.4317 10.89,13.5484 11.0221,13.6375C11.1539,13.7266 11.3136,13.8262 11.501,13.9367C11.6883,14.0472 11.8649,14.1302 12.0306,14.1854C12.1964,14.2406 12.3499,14.2683 12.4911,14.2683L12.5094,14.2683C12.6505,14.2683 12.8041,14.2406 12.9699,14.1854C13.1356,14.1302 13.312,14.0473 13.4994,13.9367C13.6866,13.8262 13.8462,13.7264 13.9784,13.6375C14.1104,13.5484 14.2762,13.4317 14.4758,13.2874C14.5792,13.2126 14.6631,13.1521 14.7295,13.1046C14.7911,13.0604 14.8375,13.0274 14.8672,13.0065C15.0675,12.8671 15.3796,12.6502 15.7992,12.3588C16.5627,11.8283 17.6872,11.0475 19.1773,10.0133C19.6255,9.70023 19.9999,9.32248 20.3008,8.88055C20.6012,8.43863 20.7518,7.97507 20.7518,7.49002C20.7518,7.08477 20.6058,6.73801 20.3144,6.44919C20.0227,6.16074 19.6772,6.01643 19.2781,6.01643Z" style="fill:rgb(64,67,79);fill-rule:nonzero;"/>
        </g>
    </g>
</svg>
