<?xml version="1.0" standalone="no"?>
<!DOCTYPE svg PUBLIC "-//W3C//DTD SVG 1.1//EN" "http://www.w3.org/Graphics/SVG/1.1/DTD/svg11.dtd">
<svg width="1333px" height="1333px" version="1.1" xmlns="http://www.w3.org/2000/svg" xmlns:xlink="http://www.w3.org/1999/xlink" xml:space="preserve" style="fill-rule:evenodd;clip-rule:evenodd;stroke-linejoin:round;stroke-miterlimit:1.41421;">
    <g>
        <g>
            <path d="M210,6.53333C213.733,10 242.133,36.9333 273.333,66.1333C304.533,95.4667 365.6,152.8 409.067,193.733C566.533,341.867 645.467,416.133 688,456C711.867,478.4 761.867,525.333 799.067,560.4C866.533,623.867 866.933,624.267 869.733,621.867C871.333,620.533 883.467,608.933 896.667,596C977.867,516.8 1017.2,478.533 1021.07,475.333C1023.47,473.333 1025.33,470.933 1025.07,470C1024.8,468.933 1017.47,461.467 1008.67,453.067C972.4,418.933 666.667,131.6 625.333,92.8C608.8,77.3333 580,50.1333 561.067,32.2667L526.8,0L203.333,0Z" style="fill:white;fill-rule:nonzero;"/>
            <path d="M1.33333,196.533C1.33333,196.933 23.4667,217.867 175.333,360.667C297.867,475.867 474.8,642.4 599.2,759.333C634.267,792.267 663.6,819.467 664.533,819.733C665.467,819.867 701.733,785.467 745.2,743.2L824.267,666.267L821.067,663.333C819.467,661.733 791.867,635.867 760,605.867C562.933,420.933 527.6,387.733 506.667,368C495.333,357.2 449.467,314.133 404.933,272.267L323.867,196L162.667,196C73.8667,196 1.33333,196.267 1.33333,196.533Z" style="fill:white;fill-rule:nonzero;"/>
            <path d="M949.733,236.267C926.133,257.6 907.067,275.6 907.467,276.133C907.867,276.933 1064.8,415.333 1076.27,425.067C1078.4,426.8 1079.73,426 1090.93,415.733C1119.07,390.267 1194.13,322.267 1255.33,266.8C1291.33,234.267 1323.07,205.333 1326,202.533L1331.33,197.333L992.667,197.333Z" style="fill:white;fill-rule:nonzero;"/>
            <path d="M0,808.533L0,1333.33L228,1333.33L227.867,918.933L227.6,504.667L201.467,479.333C163.733,442.8 68.2667,349.733 34,316C17.8667,300.133 3.6,286.4 2.4,285.467C0.133333,283.733 0,308.933 0,808.533Z" style="fill:white;fill-rule:nonzero;"/>
            <path d="M1272.67,342.933C1239.73,375.2 1188.53,425.067 1159.07,453.733L1105.33,505.867L1105.33,1333.33L1333.33,1333.33L1333.33,808.667C1333.33,520.133 1333.2,284 1333.07,284C1332.8,284.133 1305.73,310.533 1272.67,342.933Z" style="fill:white;fill-rule:nonzero;"/>
        </g>
    </g>
</svg>
