<?xml version="1.0" standalone="no"?>
<!DOCTYPE svg PUBLIC "-//W3C//DTD SVG 1.1//EN" "http://www.w3.org/Graphics/SVG/1.1/DTD/svg11.dtd">
<svg width="25px" height="25px" version="1.1" xmlns="http://www.w3.org/2000/svg" xmlns:xlink="http://www.w3.org/1999/xlink" xml:space="preserve" style="fill-rule:evenodd;clip-rule:evenodd;stroke-linejoin:round;stroke-miterlimit:1.41421;">
    <g>
        <g id="Capa_1">
            <path d="M12.5,0C5.59687,0 0,5.59687 0,12.5C0,19.4031 5.59687,25 12.5,25C19.4031,25 25,19.4031 25,12.5C25,5.59531 19.4031,0 12.5,0ZM18.7188,9.69375L18.7281,10.0922C18.7281,14.1609 15.6328,18.8484 9.97187,18.8484C8.23438,18.8484 6.61719,18.3391 5.25469,17.4656C5.49531,17.4937 5.74062,17.5094 5.98906,17.5094C7.43125,17.5094 8.75781,17.0172 9.81094,16.1922C8.46406,16.1672 7.32813,15.2766 6.93594,14.0547C7.125,14.0906 7.31563,14.1078 7.51562,14.1078C7.79688,14.1078 8.06875,14.0719 8.32656,14.0016C6.91875,13.7172 5.85781,12.475 5.85781,10.9844L5.85781,10.9453C6.27344,11.1766 6.74687,11.3141 7.25156,11.3312C6.42656,10.7797 5.88281,9.8375 5.88281,8.77031C5.88281,8.20625 6.03437,7.67812 6.29844,7.22344C7.81562,9.08594 10.0844,10.3109 12.6422,10.4391C12.5891,10.2141 12.5625,9.97813 12.5625,9.7375C12.5625,8.03906 13.9406,6.66094 15.6406,6.66094C16.525,6.66094 17.325,7.03437 17.8875,7.63281C18.5875,7.49375 19.2469,7.2375 19.8422,6.88594C19.6125,7.60469 19.125,8.20781 18.4891,8.58906C19.1094,8.51562 19.7047,8.34844 20.2563,8.10469C19.8438,8.72031 19.3203,9.2625 18.7188,9.69375Z" style="fill:rgb(238,238,238);fill-rule:nonzero;"/>
        </g>
    </g>
</svg>
